<?xml version="1.0" encoding="UTF-8" standalone="no"?>
<!DOCTYPE svg PUBLIC "-//W3C//DTD SVG 1.1//EN"
 "http://www.w3.org/Graphics/SVG/1.1/DTD/svg11.dtd">
<!-- Generated by graphviz version 2.36.0 (20140111.2315)
 -->
<!-- Title: controllers_diagram Pages: 1 -->
<svg width="674pt" height="716pt"
 viewBox="0.00 0.00 674.00 716.00" xmlns="http://www.w3.org/2000/svg" xmlns:xlink="http://www.w3.org/1999/xlink">
<g id="graph0" class="graph" transform="scale(1 1) rotate(0) translate(4 712)">
<title>controllers_diagram</title>
<polygon fill="none" stroke="none" points="-4,4 -4,-712 670,-712 670,4 -4,4"/>
<!-- _diagram_info -->
<g id="node1" class="node"><title>_diagram_info</title>
<text text-anchor="start" x="255" y="-139.6" font-family="Times,serif" font-size="13.00">Controllers diagram</text>
<text text-anchor="start" x="255" y="-125.6" font-family="Times,serif" font-size="13.00">Date: Jan 17 2017 &#45; 01:25</text>
<text text-anchor="start" x="255" y="-111.6" font-family="Times,serif" font-size="13.00">Migration version: 20170115175336</text>
<text text-anchor="start" x="255" y="-97.6" font-family="Times,serif" font-size="13.00">Generated by RailRoady 1.5.2</text>
<text text-anchor="start" x="255" y="-83.6" font-family="Times,serif" font-size="13.00">http://railroady.prestonlee.com</text>
</g>
<!-- ApartmentsController -->
<g id="node2" class="node"><title>ApartmentsController</title>
<path fill="none" stroke="black" d="M392,-437.5C392,-437.5 504,-437.5 504,-437.5 510,-437.5 516,-443.5 516,-449.5 516,-449.5 516,-638.5 516,-638.5 516,-644.5 510,-650.5 504,-650.5 504,-650.5 392,-650.5 392,-650.5 386,-650.5 380,-644.5 380,-638.5 380,-638.5 380,-449.5 380,-449.5 380,-443.5 386,-437.5 392,-437.5"/>
<text text-anchor="middle" x="448" y="-635.3" font-family="Times,serif" font-size="14.00">ApartmentsController</text>
<polyline fill="none" stroke="black" points="380,-627.5 516,-627.5 "/>
<text text-anchor="start" x="388" y="-612.3" font-family="Times,serif" font-size="14.00">create</text>
<text text-anchor="start" x="388" y="-597.3" font-family="Times,serif" font-size="14.00">destroy</text>
<text text-anchor="start" x="388" y="-582.3" font-family="Times,serif" font-size="14.00">edit</text>
<text text-anchor="start" x="388" y="-567.3" font-family="Times,serif" font-size="14.00">index</text>
<text text-anchor="start" x="388" y="-552.3" font-family="Times,serif" font-size="14.00">new</text>
<text text-anchor="start" x="388" y="-537.3" font-family="Times,serif" font-size="14.00">show</text>
<text text-anchor="start" x="388" y="-522.3" font-family="Times,serif" font-size="14.00">update</text>
<polyline fill="none" stroke="black" points="380,-514.5 516,-514.5 "/>
<polyline fill="none" stroke="black" points="380,-490.5 516,-490.5 "/>
<text text-anchor="start" x="388" y="-475.3" font-family="Times,serif" font-size="14.00">_layout</text>
<text text-anchor="start" x="388" y="-460.3" font-family="Times,serif" font-size="14.00">apartment_params</text>
<text text-anchor="start" x="388" y="-445.3" font-family="Times,serif" font-size="14.00">set_apartment</text>
</g>
<!-- ApplicationController -->
<g id="node3" class="node"><title>ApplicationController</title>
<path fill="none" stroke="black" d="M12,-57.5C12,-57.5 124,-57.5 124,-57.5 130,-57.5 136,-63.5 136,-69.5 136,-69.5 136,-139.5 136,-139.5 136,-145.5 130,-151.5 124,-151.5 124,-151.5 12,-151.5 12,-151.5 6,-151.5 -2.84217e-14,-145.5 -2.84217e-14,-139.5 -2.84217e-14,-139.5 -2.84217e-14,-69.5 -2.84217e-14,-69.5 -2.84217e-14,-63.5 6,-57.5 12,-57.5"/>
<text text-anchor="middle" x="68" y="-136.3" font-family="Times,serif" font-size="14.00">ApplicationController</text>
<polyline fill="none" stroke="black" points="-2.84217e-14,-128.5 136,-128.5 "/>
<polyline fill="none" stroke="black" points="-2.84217e-14,-104.5 136,-104.5 "/>
<polyline fill="none" stroke="black" points="-2.84217e-14,-80.5 136,-80.5 "/>
<text text-anchor="start" x="8" y="-65.3" font-family="Times,serif" font-size="14.00">_layout</text>
</g>
<!-- PhysicalsController -->
<g id="node4" class="node"><title>PhysicalsController</title>
<path fill="none" stroke="black" d="M240,-456.5C240,-456.5 339,-456.5 339,-456.5 345,-456.5 351,-462.5 351,-468.5 351,-468.5 351,-657.5 351,-657.5 351,-663.5 345,-669.5 339,-669.5 339,-669.5 240,-669.5 240,-669.5 234,-669.5 228,-663.5 228,-657.5 228,-657.5 228,-468.5 228,-468.5 228,-462.5 234,-456.5 240,-456.5"/>
<text text-anchor="middle" x="289.5" y="-654.3" font-family="Times,serif" font-size="14.00">PhysicalsController</text>
<polyline fill="none" stroke="black" points="228,-646.5 351,-646.5 "/>
<text text-anchor="start" x="236" y="-631.3" font-family="Times,serif" font-size="14.00">create</text>
<text text-anchor="start" x="236" y="-616.3" font-family="Times,serif" font-size="14.00">destroy</text>
<text text-anchor="start" x="236" y="-601.3" font-family="Times,serif" font-size="14.00">edit</text>
<text text-anchor="start" x="236" y="-586.3" font-family="Times,serif" font-size="14.00">index</text>
<text text-anchor="start" x="236" y="-571.3" font-family="Times,serif" font-size="14.00">new</text>
<text text-anchor="start" x="236" y="-556.3" font-family="Times,serif" font-size="14.00">show</text>
<text text-anchor="start" x="236" y="-541.3" font-family="Times,serif" font-size="14.00">update</text>
<polyline fill="none" stroke="black" points="228,-533.5 351,-533.5 "/>
<polyline fill="none" stroke="black" points="228,-509.5 351,-509.5 "/>
<text text-anchor="start" x="236" y="-494.3" font-family="Times,serif" font-size="14.00">_layout</text>
<text text-anchor="start" x="236" y="-479.3" font-family="Times,serif" font-size="14.00">physical_params</text>
<text text-anchor="start" x="236" y="-464.3" font-family="Times,serif" font-size="14.00">set_physical</text>
</g>
<!-- OrdersController -->
<g id="node5" class="node"><title>OrdersController</title>
<path fill="none" stroke="black" d="M12,-228.5C12,-228.5 97,-228.5 97,-228.5 103,-228.5 109,-234.5 109,-240.5 109,-240.5 109,-429.5 109,-429.5 109,-435.5 103,-441.5 97,-441.5 97,-441.5 12,-441.5 12,-441.5 6,-441.5 -2.84217e-14,-435.5 -2.84217e-14,-429.5 -2.84217e-14,-429.5 -2.84217e-14,-240.5 -2.84217e-14,-240.5 -2.84217e-14,-234.5 6,-228.5 12,-228.5"/>
<text text-anchor="middle" x="54.5" y="-426.3" font-family="Times,serif" font-size="14.00">OrdersController</text>
<polyline fill="none" stroke="black" points="-2.84217e-14,-418.5 109,-418.5 "/>
<text text-anchor="start" x="8" y="-403.3" font-family="Times,serif" font-size="14.00">create</text>
<text text-anchor="start" x="8" y="-388.3" font-family="Times,serif" font-size="14.00">destroy</text>
<text text-anchor="start" x="8" y="-373.3" font-family="Times,serif" font-size="14.00">edit</text>
<text text-anchor="start" x="8" y="-358.3" font-family="Times,serif" font-size="14.00">index</text>
<text text-anchor="start" x="8" y="-343.3" font-family="Times,serif" font-size="14.00">new</text>
<text text-anchor="start" x="8" y="-328.3" font-family="Times,serif" font-size="14.00">show</text>
<text text-anchor="start" x="8" y="-313.3" font-family="Times,serif" font-size="14.00">update</text>
<polyline fill="none" stroke="black" points="-2.84217e-14,-305.5 109,-305.5 "/>
<polyline fill="none" stroke="black" points="-2.84217e-14,-281.5 109,-281.5 "/>
<text text-anchor="start" x="8" y="-266.3" font-family="Times,serif" font-size="14.00">_layout</text>
<text text-anchor="start" x="8" y="-251.3" font-family="Times,serif" font-size="14.00">order_params</text>
<text text-anchor="start" x="8" y="-236.3" font-family="Times,serif" font-size="14.00">set_order</text>
</g>
<!-- ProjectsController -->
<g id="node6" class="node"><title>ProjectsController</title>
<path fill="none" stroke="black" d="M88,-475.5C88,-475.5 184,-475.5 184,-475.5 190,-475.5 196,-481.5 196,-487.5 196,-487.5 196,-691.5 196,-691.5 196,-697.5 190,-703.5 184,-703.5 184,-703.5 88,-703.5 88,-703.5 82,-703.5 76,-697.5 76,-691.5 76,-691.5 76,-487.5 76,-487.5 76,-481.5 82,-475.5 88,-475.5"/>
<text text-anchor="middle" x="136" y="-688.3" font-family="Times,serif" font-size="14.00">ProjectsController</text>
<polyline fill="none" stroke="black" points="76,-680.5 196,-680.5 "/>
<text text-anchor="start" x="84" y="-665.3" font-family="Times,serif" font-size="14.00">create</text>
<text text-anchor="start" x="84" y="-650.3" font-family="Times,serif" font-size="14.00">destroy</text>
<text text-anchor="start" x="84" y="-635.3" font-family="Times,serif" font-size="14.00">edit</text>
<text text-anchor="start" x="84" y="-620.3" font-family="Times,serif" font-size="14.00">index</text>
<text text-anchor="start" x="84" y="-605.3" font-family="Times,serif" font-size="14.00">new</text>
<text text-anchor="start" x="84" y="-590.3" font-family="Times,serif" font-size="14.00">show</text>
<text text-anchor="start" x="84" y="-575.3" font-family="Times,serif" font-size="14.00">update</text>
<text text-anchor="start" x="84" y="-560.3" font-family="Times,serif" font-size="14.00">upload_apartments</text>
<polyline fill="none" stroke="black" points="76,-552.5 196,-552.5 "/>
<polyline fill="none" stroke="black" points="76,-528.5 196,-528.5 "/>
<text text-anchor="start" x="84" y="-513.3" font-family="Times,serif" font-size="14.00">_layout</text>
<text text-anchor="start" x="84" y="-498.3" font-family="Times,serif" font-size="14.00">project_params</text>
<text text-anchor="start" x="84" y="-483.3" font-family="Times,serif" font-size="14.00">set_project</text>
</g>
<!-- BrokersController -->
<g id="node7" class="node"><title>BrokersController</title>
<path fill="none" stroke="black" d="M563,-0.5C563,-0.5 654,-0.5 654,-0.5 660,-0.5 666,-6.5 666,-12.5 666,-12.5 666,-201.5 666,-201.5 666,-207.5 660,-213.5 654,-213.5 654,-213.5 563,-213.5 563,-213.5 557,-213.5 551,-207.5 551,-201.5 551,-201.5 551,-12.5 551,-12.5 551,-6.5 557,-0.5 563,-0.5"/>
<text text-anchor="middle" x="608.5" y="-198.3" font-family="Times,serif" font-size="14.00">BrokersController</text>
<polyline fill="none" stroke="black" points="551,-190.5 666,-190.5 "/>
<text text-anchor="start" x="559" y="-175.3" font-family="Times,serif" font-size="14.00">create</text>
<text text-anchor="start" x="559" y="-160.3" font-family="Times,serif" font-size="14.00">destroy</text>
<text text-anchor="start" x="559" y="-145.3" font-family="Times,serif" font-size="14.00">edit</text>
<text text-anchor="start" x="559" y="-130.3" font-family="Times,serif" font-size="14.00">index</text>
<text text-anchor="start" x="559" y="-115.3" font-family="Times,serif" font-size="14.00">new</text>
<text text-anchor="start" x="559" y="-100.3" font-family="Times,serif" font-size="14.00">show</text>
<text text-anchor="start" x="559" y="-85.3" font-family="Times,serif" font-size="14.00">update</text>
<polyline fill="none" stroke="black" points="551,-77.5 666,-77.5 "/>
<polyline fill="none" stroke="black" points="551,-53.5 666,-53.5 "/>
<text text-anchor="start" x="559" y="-38.3" font-family="Times,serif" font-size="14.00">_layout</text>
<text text-anchor="start" x="559" y="-23.3" font-family="Times,serif" font-size="14.00">broker_params</text>
<text text-anchor="start" x="559" y="-8.3" font-family="Times,serif" font-size="14.00">set_broker</text>
</g>
<!-- YuristsController -->
<g id="node8" class="node"><title>YuristsController</title>
<path fill="none" stroke="black" d="M563,-247.5C563,-247.5 650,-247.5 650,-247.5 656,-247.5 662,-253.5 662,-259.5 662,-259.5 662,-448.5 662,-448.5 662,-454.5 656,-460.5 650,-460.5 650,-460.5 563,-460.5 563,-460.5 557,-460.5 551,-454.5 551,-448.5 551,-448.5 551,-259.5 551,-259.5 551,-253.5 557,-247.5 563,-247.5"/>
<text text-anchor="middle" x="606.5" y="-445.3" font-family="Times,serif" font-size="14.00">YuristsController</text>
<polyline fill="none" stroke="black" points="551,-437.5 662,-437.5 "/>
<text text-anchor="start" x="559" y="-422.3" font-family="Times,serif" font-size="14.00">create</text>
<text text-anchor="start" x="559" y="-407.3" font-family="Times,serif" font-size="14.00">destroy</text>
<text text-anchor="start" x="559" y="-392.3" font-family="Times,serif" font-size="14.00">edit</text>
<text text-anchor="start" x="559" y="-377.3" font-family="Times,serif" font-size="14.00">index</text>
<text text-anchor="start" x="559" y="-362.3" font-family="Times,serif" font-size="14.00">new</text>
<text text-anchor="start" x="559" y="-347.3" font-family="Times,serif" font-size="14.00">show</text>
<text text-anchor="start" x="559" y="-332.3" font-family="Times,serif" font-size="14.00">update</text>
<polyline fill="none" stroke="black" points="551,-324.5 662,-324.5 "/>
<polyline fill="none" stroke="black" points="551,-300.5 662,-300.5 "/>
<text text-anchor="start" x="559" y="-285.3" font-family="Times,serif" font-size="14.00">_layout</text>
<text text-anchor="start" x="559" y="-270.3" font-family="Times,serif" font-size="14.00">set_yurist</text>
<text text-anchor="start" x="559" y="-255.3" font-family="Times,serif" font-size="14.00">yurist_params</text>
</g>
<!-- OrderYuristsController -->
<g id="node9" class="node"><title>OrderYuristsController</title>
<path fill="none" stroke="black" d="M164,-190.5C164,-190.5 309,-190.5 309,-190.5 315,-190.5 321,-196.5 321,-202.5 321,-202.5 321,-406.5 321,-406.5 321,-412.5 315,-418.5 309,-418.5 309,-418.5 164,-418.5 164,-418.5 158,-418.5 152,-412.5 152,-406.5 152,-406.5 152,-202.5 152,-202.5 152,-196.5 158,-190.5 164,-190.5"/>
<text text-anchor="middle" x="236.5" y="-403.3" font-family="Times,serif" font-size="14.00">OrderYuristsController</text>
<polyline fill="none" stroke="black" points="152,-395.5 321,-395.5 "/>
<text text-anchor="start" x="160" y="-380.3" font-family="Times,serif" font-size="14.00">create</text>
<text text-anchor="start" x="160" y="-365.3" font-family="Times,serif" font-size="14.00">destroy</text>
<text text-anchor="start" x="160" y="-350.3" font-family="Times,serif" font-size="14.00">edit</text>
<text text-anchor="start" x="160" y="-335.3" font-family="Times,serif" font-size="14.00">index</text>
<text text-anchor="start" x="160" y="-320.3" font-family="Times,serif" font-size="14.00">new</text>
<text text-anchor="start" x="160" y="-305.3" font-family="Times,serif" font-size="14.00">show</text>
<text text-anchor="start" x="160" y="-290.3" font-family="Times,serif" font-size="14.00">update</text>
<polyline fill="none" stroke="black" points="152,-282.5 321,-282.5 "/>
<polyline fill="none" stroke="black" points="152,-258.5 321,-258.5 "/>
<text text-anchor="start" x="160" y="-243.3" font-family="Times,serif" font-size="14.00">_layout</text>
<text text-anchor="start" x="160" y="-228.3" font-family="Times,serif" font-size="14.00">order_yurist_params</text>
<text text-anchor="start" x="160" y="-213.3" font-family="Times,serif" font-size="14.00">set_order_yurist</text>
<text text-anchor="start" x="160" y="-198.3" font-family="Times,serif" font-size="14.00">set_project_and_apartments</text>
</g>
<!-- PeopleController -->
<g id="node10" class="node"><title>PeopleController</title>
<path fill="none" stroke="black" d="M563,-494.5C563,-494.5 648,-494.5 648,-494.5 654,-494.5 660,-500.5 660,-506.5 660,-506.5 660,-695.5 660,-695.5 660,-701.5 654,-707.5 648,-707.5 648,-707.5 563,-707.5 563,-707.5 557,-707.5 551,-701.5 551,-695.5 551,-695.5 551,-506.5 551,-506.5 551,-500.5 557,-494.5 563,-494.5"/>
<text text-anchor="middle" x="605.5" y="-692.3" font-family="Times,serif" font-size="14.00">PeopleController</text>
<polyline fill="none" stroke="black" points="551,-684.5 660,-684.5 "/>
<text text-anchor="start" x="559" y="-669.3" font-family="Times,serif" font-size="14.00">create</text>
<text text-anchor="start" x="559" y="-654.3" font-family="Times,serif" font-size="14.00">destroy</text>
<text text-anchor="start" x="559" y="-639.3" font-family="Times,serif" font-size="14.00">edit</text>
<text text-anchor="start" x="559" y="-624.3" font-family="Times,serif" font-size="14.00">index</text>
<text text-anchor="start" x="559" y="-609.3" font-family="Times,serif" font-size="14.00">new</text>
<text text-anchor="start" x="559" y="-594.3" font-family="Times,serif" font-size="14.00">show</text>
<text text-anchor="start" x="559" y="-579.3" font-family="Times,serif" font-size="14.00">update</text>
<polyline fill="none" stroke="black" points="551,-571.5 660,-571.5 "/>
<polyline fill="none" stroke="black" points="551,-547.5 660,-547.5 "/>
<text text-anchor="start" x="559" y="-532.3" font-family="Times,serif" font-size="14.00">_layout</text>
<text text-anchor="start" x="559" y="-517.3" font-family="Times,serif" font-size="14.00">person_params</text>
<text text-anchor="start" x="559" y="-502.3" font-family="Times,serif" font-size="14.00">set_person</text>
</g>
<!-- ZabydovnuksController -->
<g id="node11" class="node"><title>ZabydovnuksController</title>
<path fill="none" stroke="black" d="M373,-190.5C373,-190.5 495,-190.5 495,-190.5 501,-190.5 507,-196.5 507,-202.5 507,-202.5 507,-391.5 507,-391.5 507,-397.5 501,-403.5 495,-403.5 495,-403.5 373,-403.5 373,-403.5 367,-403.5 361,-397.5 361,-391.5 361,-391.5 361,-202.5 361,-202.5 361,-196.5 367,-190.5 373,-190.5"/>
<text text-anchor="middle" x="434" y="-388.3" font-family="Times,serif" font-size="14.00">ZabydovnuksController</text>
<polyline fill="none" stroke="black" points="361,-380.5 507,-380.5 "/>
<text text-anchor="start" x="369" y="-365.3" font-family="Times,serif" font-size="14.00">create</text>
<text text-anchor="start" x="369" y="-350.3" font-family="Times,serif" font-size="14.00">destroy</text>
<text text-anchor="start" x="369" y="-335.3" font-family="Times,serif" font-size="14.00">edit</text>
<text text-anchor="start" x="369" y="-320.3" font-family="Times,serif" font-size="14.00">index</text>
<text text-anchor="start" x="369" y="-305.3" font-family="Times,serif" font-size="14.00">new</text>
<text text-anchor="start" x="369" y="-290.3" font-family="Times,serif" font-size="14.00">show</text>
<text text-anchor="start" x="369" y="-275.3" font-family="Times,serif" font-size="14.00">update</text>
<polyline fill="none" stroke="black" points="361,-267.5 507,-267.5 "/>
<polyline fill="none" stroke="black" points="361,-243.5 507,-243.5 "/>
<text text-anchor="start" x="369" y="-228.3" font-family="Times,serif" font-size="14.00">_layout</text>
<text text-anchor="start" x="369" y="-213.3" font-family="Times,serif" font-size="14.00">set_zabydovnuk</text>
<text text-anchor="start" x="369" y="-198.3" font-family="Times,serif" font-size="14.00">zabydovnuk_params</text>
</g>
</g>
</svg>
