<?xml version="1.0" encoding="UTF-8" standalone="no"?>
<!DOCTYPE svg PUBLIC "-//W3C//DTD SVG 1.1//EN"
 "http://www.w3.org/Graphics/SVG/1.1/DTD/svg11.dtd">
<!-- Generated by graphviz version 2.36.0 (20140111.2315)
 -->
<!-- Title: models_diagram Pages: 1 -->
<svg width="650pt" height="302pt"
 viewBox="0.00 0.00 650.00 302.00" xmlns="http://www.w3.org/2000/svg" xmlns:xlink="http://www.w3.org/1999/xlink">
<g id="graph0" class="graph" transform="scale(1 1) rotate(0) translate(4 298)">
<title>models_diagram</title>
<polygon fill="none" stroke="none" points="-4,4 -4,-298 646,-298 646,4 -4,4"/>
<!-- _diagram_info -->
<g id="node1" class="node"><title>_diagram_info</title>
<text text-anchor="start" x="7" y="-279.6" font-family="Times,serif" font-size="13.00">Models diagram</text>
<text text-anchor="start" x="7" y="-265.6" font-family="Times,serif" font-size="13.00">Date: Jan 17 2017 &#45; 01:25</text>
<text text-anchor="start" x="7" y="-251.6" font-family="Times,serif" font-size="13.00">Migration version: 20170115175336</text>
<text text-anchor="start" x="7" y="-237.6" font-family="Times,serif" font-size="13.00">Generated by RailRoady 1.5.2</text>
<text text-anchor="start" x="7" y="-223.6" font-family="Times,serif" font-size="13.00">http://railroady.prestonlee.com</text>
</g>
<!-- Zabydovnuk -->
<g id="node2" class="node"><title>Zabydovnuk</title>
<ellipse fill="none" stroke="black" cx="286" cy="-255" rx="55.3682" ry="18"/>
<text text-anchor="middle" x="286" y="-251.3" font-family="Times,serif" font-size="14.00">Zabydovnuk</text>
</g>
<!-- Project -->
<g id="node5" class="node"><title>Project</title>
<ellipse fill="none" stroke="black" cx="286" cy="-162" rx="35.6194" ry="18"/>
<text text-anchor="middle" x="286" y="-158.3" font-family="Times,serif" font-size="14.00">Project</text>
</g>
<!-- Zabydovnuk&#45;&gt;Project -->
<g id="edge1" class="edge"><title>Zabydovnuk&#45;&gt;Project</title>
<path fill="none" stroke="#042156" d="M286,-228.729C286,-216.725 286,-202.362 286,-190.129"/>
<ellipse fill="none" stroke="#042156" cx="286" cy="-232.884" rx="4" ry="4"/>
<polygon fill="#042156" stroke="#042156" points="286,-190.04 290.5,-180.04 286,-185.04 286,-180.04 286,-180.04 286,-180.04 286,-185.04 281.5,-180.04 286,-190.04 286,-190.04"/>
</g>
<!-- Person -->
<g id="node3" class="node"><title>Person</title>
<ellipse fill="none" stroke="black" cx="512" cy="-162" rx="34.1708" ry="18"/>
<text text-anchor="middle" x="512" y="-158.3" font-family="Times,serif" font-size="14.00">Person</text>
</g>
<!-- Yurist -->
<g id="node4" class="node"><title>Yurist</title>
<ellipse fill="none" stroke="black" cx="423" cy="-90" rx="32.2457" ry="18"/>
<text text-anchor="middle" x="423" y="-86.3" font-family="Times,serif" font-size="14.00">Yurist</text>
</g>
<!-- Person&#45;&gt;Yurist -->
<g id="edge3" class="edge"><title>Person&#45;&gt;Yurist</title>
<path fill="none" stroke="#a5348c" d="M487.079,-141.399C474.662,-131.633 459.704,-119.868 447.363,-110.162"/>
<ellipse fill="none" stroke="#a5348c" cx="490.415" cy="-144.023" rx="4.00002" ry="4.00002"/>
<ellipse fill="#a5348c" stroke="#a5348c" cx="443.954" cy="-107.481" rx="4.00002" ry="4.00002"/>
</g>
<!-- Physical -->
<g id="node10" class="node"><title>Physical</title>
<ellipse fill="none" stroke="black" cx="602" cy="-90" rx="39.9464" ry="18"/>
<text text-anchor="middle" x="602" y="-86.3" font-family="Times,serif" font-size="14.00">Physical</text>
</g>
<!-- Person&#45;&gt;Physical -->
<g id="edge2" class="edge"><title>Person&#45;&gt;Physical</title>
<path fill="none" stroke="#737afb" d="M537.021,-141.539C549.224,-132.048 563.886,-120.645 576.191,-111.073"/>
<ellipse fill="none" stroke="#737afb" cx="533.805" cy="-144.04" rx="4.00002" ry="4.00002"/>
<ellipse fill="#737afb" stroke="#737afb" cx="579.597" cy="-108.424" rx="4.00002" ry="4.00002"/>
</g>
<!-- OrderYurist -->
<g id="node6" class="node"><title>OrderYurist</title>
<ellipse fill="none" stroke="black" cx="324" cy="-18" rx="52.9443" ry="18"/>
<text text-anchor="middle" x="324" y="-14.3" font-family="Times,serif" font-size="14.00">OrderYurist</text>
</g>
<!-- Yurist&#45;&gt;OrderYurist -->
<g id="edge4" class="edge"><title>Yurist&#45;&gt;OrderYurist</title>
<path fill="none" stroke="#a31be7" d="M396.493,-70.2574C383.525,-61.0883 367.85,-50.0053 354.399,-40.4941"/>
<ellipse fill="none" stroke="#a31be7" cx="400.175" cy="-72.8609" rx="4.00002" ry="4.00002"/>
<polygon fill="#a31be7" stroke="#a31be7" points="354.096,-40.2801 348.529,-30.8325 350.014,-37.3934 345.931,-34.5068 345.931,-34.5068 345.931,-34.5068 350.014,-37.3934 343.333,-38.1811 354.096,-40.2801 354.096,-40.2801"/>
</g>
<!-- Project&#45;&gt;OrderYurist -->
<g id="edge5" class="edge"><title>Project&#45;&gt;OrderYurist</title>
<path fill="none" stroke="#e71d4a" d="M272.799,-137.259C264.41,-118.863 256.721,-93.0484 266,-72 271.427,-59.6893 281.282,-48.9973 291.347,-40.5041"/>
<ellipse fill="none" stroke="#e71d4a" cx="274.643" cy="-141.055" rx="4.00002" ry="4.00002"/>
<polygon fill="#e71d4a" stroke="#e71d4a" points="291.527,-40.3622 302.168,-37.7106 295.455,-37.2687 299.384,-34.1753 299.384,-34.1753 299.384,-34.1753 295.455,-37.2687 296.599,-30.6399 291.527,-40.3622 291.527,-40.3622"/>
</g>
<!-- Apartment -->
<g id="node11" class="node"><title>Apartment</title>
<ellipse fill="none" stroke="black" cx="324" cy="-90" rx="48.6179" ry="18"/>
<text text-anchor="middle" x="324" y="-86.3" font-family="Times,serif" font-size="14.00">Apartment</text>
</g>
<!-- Project&#45;&gt;Apartment -->
<g id="edge6" class="edge"><title>Project&#45;&gt;Apartment</title>
<path fill="none" stroke="#738601" d="M298.841,-137.346C302.357,-130.869 306.188,-123.811 309.777,-117.201"/>
<ellipse fill="none" stroke="#738601" cx="296.914" cy="-140.896" rx="4.00002" ry="4.00002"/>
<polygon fill="#738601" stroke="#738601" points="310.024,-116.745 318.75,-110.103 312.41,-112.35 314.795,-107.956 314.795,-107.956 314.795,-107.956 312.41,-112.35 310.84,-105.809 310.024,-116.745 310.024,-116.745"/>
</g>
<!-- Broker -->
<g id="node7" class="node"><title>Broker</title>
<ellipse fill="none" stroke="black" cx="509" cy="-90" rx="35.1455" ry="18"/>
<text text-anchor="middle" x="509" y="-86.3" font-family="Times,serif" font-size="14.00">Broker</text>
</g>
<!-- Order -->
<g id="node8" class="node"><title>Order</title>
<ellipse fill="none" stroke="black" cx="509" cy="-18" rx="31.2965" ry="18"/>
<text text-anchor="middle" x="509" y="-14.3" font-family="Times,serif" font-size="14.00">Order</text>
</g>
<!-- Broker&#45;&gt;Order -->
<g id="edge7" class="edge"><title>Broker&#45;&gt;Order</title>
<path fill="none" stroke="#4586b1" d="M509,-63.6398C509,-58.0629 509,-52.1319 509,-46.4761"/>
<ellipse fill="none" stroke="#4586b1" cx="509" cy="-67.6966" rx="4" ry="4"/>
<polygon fill="#4586b1" stroke="#4586b1" points="509,-46.1043 513.5,-36.1043 509,-41.1043 509,-36.1043 509,-36.1043 509,-36.1043 509,-41.1043 504.5,-36.1044 509,-46.1043 509,-46.1043"/>
</g>
<!-- ApplicationRecord -->
<g id="node9" class="node"><title>ApplicationRecord</title>
<ellipse fill="none" stroke="black" cx="437" cy="-255" rx="77.0154" ry="18"/>
<text text-anchor="middle" x="437" y="-251.3" font-family="Times,serif" font-size="14.00">ApplicationRecord</text>
</g>
<!-- Physical&#45;&gt;Order -->
<g id="edge8" class="edge"><title>Physical&#45;&gt;Order</title>
<path fill="none" stroke="#d95c5d" d="M575.873,-69.3345C563.241,-59.8266 548.109,-48.437 535.437,-38.8987"/>
<ellipse fill="none" stroke="#d95c5d" cx="579.081" cy="-71.7493" rx="4.00002" ry="4.00002"/>
<polygon fill="#d95c5d" stroke="#d95c5d" points="535.107,-38.6506 529.824,-29.0415 531.112,-35.6438 527.118,-32.6369 527.118,-32.6369 527.118,-32.6369 531.112,-35.6438 524.411,-36.2322 535.107,-38.6506 535.107,-38.6506"/>
</g>
<!-- Apartment&#45;&gt;OrderYurist -->
<g id="edge9" class="edge"><title>Apartment&#45;&gt;OrderYurist</title>
<path fill="none" stroke="#7d3f3c" d="M324,-63.6398C324,-58.0629 324,-52.1319 324,-46.4761"/>
<ellipse fill="none" stroke="#7d3f3c" cx="324" cy="-67.6966" rx="4" ry="4"/>
<polygon fill="#7d3f3c" stroke="#7d3f3c" points="324,-46.1043 328.5,-36.1043 324,-41.1043 324,-36.1043 324,-36.1043 324,-36.1043 324,-41.1043 319.5,-36.1044 324,-46.1043 324,-46.1043"/>
</g>
<!-- Apartment&#45;&gt;Order -->
<g id="edge10" class="edge"><title>Apartment&#45;&gt;Order</title>
<path fill="none" stroke="#e8952c" d="M364.587,-73.6429C397.294,-61.2672 442.807,-44.0458 473.945,-32.2639"/>
<ellipse fill="none" stroke="#e8952c" cx="360.39" cy="-75.2309" rx="4.00001" ry="4.00001"/>
<polygon fill="#e8952c" stroke="#e8952c" points="474.163,-32.1818 485.108,-32.8516 478.839,-30.4123 483.515,-28.6428 483.515,-28.6428 483.515,-28.6428 478.839,-30.4123 481.923,-24.434 474.163,-32.1818 474.163,-32.1818"/>
</g>
</g>
</svg>
