<?xml version="1.0" encoding="UTF-8" standalone="no"?>
<!DOCTYPE svg PUBLIC "-//W3C//DTD SVG 1.1//EN"
 "http://www.w3.org/Graphics/SVG/1.1/DTD/svg11.dtd">
<!-- Generated by graphviz version 2.36.0 (20140111.2315)
 -->
<!-- Title: models_diagram Pages: 1 -->
<svg width="933pt" height="666pt"
 viewBox="0.00 0.00 933.00 666.00" xmlns="http://www.w3.org/2000/svg" xmlns:xlink="http://www.w3.org/1999/xlink">
<g id="graph0" class="graph" transform="scale(1 1) rotate(0) translate(4 662)">
<title>models_diagram</title>
<polygon fill="none" stroke="none" points="-4,4 -4,-662 929,-662 929,4 -4,4"/>
<!-- _diagram_info -->
<g id="node1" class="node"><title>_diagram_info</title>
<text text-anchor="start" x="7" y="-621.6" font-family="Times,serif" font-size="13.00">Models diagram</text>
<text text-anchor="start" x="7" y="-607.6" font-family="Times,serif" font-size="13.00">Date: Jan 17 2017 &#45; 01:25</text>
<text text-anchor="start" x="7" y="-593.6" font-family="Times,serif" font-size="13.00">Migration version: 20170115175336</text>
<text text-anchor="start" x="7" y="-579.6" font-family="Times,serif" font-size="13.00">Generated by RailRoady 1.5.2</text>
<text text-anchor="start" x="7" y="-565.6" font-family="Times,serif" font-size="13.00">http://railroady.prestonlee.com</text>
</g>
<!-- Zabydovnuk -->
<g id="node2" class="node"><title>Zabydovnuk</title>
<path fill="none" stroke="black" d="M243.5,-536.5C243.5,-536.5 374.5,-536.5 374.5,-536.5 380.5,-536.5 386.5,-542.5 386.5,-548.5 386.5,-548.5 386.5,-645.5 386.5,-645.5 386.5,-651.5 380.5,-657.5 374.5,-657.5 374.5,-657.5 243.5,-657.5 243.5,-657.5 237.5,-657.5 231.5,-651.5 231.5,-645.5 231.5,-645.5 231.5,-548.5 231.5,-548.5 231.5,-542.5 237.5,-536.5 243.5,-536.5"/>
<text text-anchor="middle" x="309" y="-642.3" font-family="Times,serif" font-size="14.00">Zabydovnuk</text>
<polyline fill="none" stroke="black" points="231.5,-634.5 386.5,-634.5 "/>
<text text-anchor="start" x="239.5" y="-619.3" font-family="Times,serif" font-size="14.00">id :INTEGER</text>
<text text-anchor="start" x="239.5" y="-604.3" font-family="Times,serif" font-size="14.00">name :varchar</text>
<text text-anchor="start" x="239.5" y="-589.3" font-family="Times,serif" font-size="14.00">years_on_market :integer</text>
<text text-anchor="start" x="239.5" y="-574.3" font-family="Times,serif" font-size="14.00">projects_count :integer</text>
<text text-anchor="start" x="239.5" y="-559.3" font-family="Times,serif" font-size="14.00">created_at :datetime</text>
<text text-anchor="start" x="239.5" y="-544.3" font-family="Times,serif" font-size="14.00">updated_at :datetime</text>
</g>
<!-- Project -->
<g id="node5" class="node"><title>Project</title>
<path fill="none" stroke="black" d="M248.5,-393C248.5,-393 369.5,-393 369.5,-393 375.5,-393 381.5,-399 381.5,-405 381.5,-405 381.5,-487 381.5,-487 381.5,-493 375.5,-499 369.5,-499 369.5,-499 248.5,-499 248.5,-499 242.5,-499 236.5,-493 236.5,-487 236.5,-487 236.5,-405 236.5,-405 236.5,-399 242.5,-393 248.5,-393"/>
<text text-anchor="middle" x="309" y="-483.8" font-family="Times,serif" font-size="14.00">Project</text>
<polyline fill="none" stroke="black" points="236.5,-476 381.5,-476 "/>
<text text-anchor="start" x="244.5" y="-460.8" font-family="Times,serif" font-size="14.00">id :INTEGER</text>
<text text-anchor="start" x="244.5" y="-445.8" font-family="Times,serif" font-size="14.00">name :varchar</text>
<text text-anchor="start" x="244.5" y="-430.8" font-family="Times,serif" font-size="14.00">zabydovnuk_id :integer</text>
<text text-anchor="start" x="244.5" y="-415.8" font-family="Times,serif" font-size="14.00">created_at :datetime</text>
<text text-anchor="start" x="244.5" y="-400.8" font-family="Times,serif" font-size="14.00">updated_at :datetime</text>
</g>
<!-- Zabydovnuk&#45;&gt;Project -->
<g id="edge1" class="edge"><title>Zabydovnuk&#45;&gt;Project</title>
<path fill="none" stroke="#c0a392" d="M309,-528.113C309,-521.865 309,-515.555 309,-509.36"/>
<ellipse fill="none" stroke="#c0a392" cx="309" cy="-532.255" rx="4" ry="4"/>
<polygon fill="#c0a392" stroke="#c0a392" points="309,-509.074 313.5,-499.074 309,-504.074 309,-499.074 309,-499.074 309,-499.074 309,-504.074 304.5,-499.074 309,-509.074 309,-509.074"/>
</g>
<!-- Person -->
<g id="node3" class="node"><title>Person</title>
<path fill="none" stroke="black" d="M633.5,-393C633.5,-393 740.5,-393 740.5,-393 746.5,-393 752.5,-399 752.5,-405 752.5,-405 752.5,-487 752.5,-487 752.5,-493 746.5,-499 740.5,-499 740.5,-499 633.5,-499 633.5,-499 627.5,-499 621.5,-493 621.5,-487 621.5,-487 621.5,-405 621.5,-405 621.5,-399 627.5,-393 633.5,-393"/>
<text text-anchor="middle" x="687" y="-483.8" font-family="Times,serif" font-size="14.00">Person</text>
<polyline fill="none" stroke="black" points="621.5,-476 752.5,-476 "/>
<text text-anchor="start" x="629.5" y="-460.8" font-family="Times,serif" font-size="14.00">id :INTEGER</text>
<text text-anchor="start" x="629.5" y="-445.8" font-family="Times,serif" font-size="14.00">name :varchar</text>
<text text-anchor="start" x="629.5" y="-430.8" font-family="Times,serif" font-size="14.00">phone :varchar</text>
<text text-anchor="start" x="629.5" y="-415.8" font-family="Times,serif" font-size="14.00">created_at :datetime</text>
<text text-anchor="start" x="629.5" y="-400.8" font-family="Times,serif" font-size="14.00">updated_at :datetime</text>
</g>
<!-- Yurist -->
<g id="node4" class="node"><title>Yurist</title>
<path fill="none" stroke="black" d="M464.5,-204C464.5,-204 571.5,-204 571.5,-204 577.5,-204 583.5,-210 583.5,-216 583.5,-216 583.5,-298 583.5,-298 583.5,-304 577.5,-310 571.5,-310 571.5,-310 464.5,-310 464.5,-310 458.5,-310 452.5,-304 452.5,-298 452.5,-298 452.5,-216 452.5,-216 452.5,-210 458.5,-204 464.5,-204"/>
<text text-anchor="middle" x="518" y="-294.8" font-family="Times,serif" font-size="14.00">Yurist</text>
<polyline fill="none" stroke="black" points="452.5,-287 583.5,-287 "/>
<text text-anchor="start" x="460.5" y="-271.8" font-family="Times,serif" font-size="14.00">id :INTEGER</text>
<text text-anchor="start" x="460.5" y="-256.8" font-family="Times,serif" font-size="14.00">status :varchar</text>
<text text-anchor="start" x="460.5" y="-241.8" font-family="Times,serif" font-size="14.00">created_at :datetime</text>
<text text-anchor="start" x="460.5" y="-226.8" font-family="Times,serif" font-size="14.00">updated_at :datetime</text>
<text text-anchor="start" x="460.5" y="-211.8" font-family="Times,serif" font-size="14.00">person_id :integer</text>
</g>
<!-- Person&#45;&gt;Yurist -->
<g id="edge3" class="edge"><title>Person&#45;&gt;Yurist</title>
<path fill="none" stroke="#cf3261" d="M622.862,-386.905C612.597,-376.867 602.302,-366.332 593,-356 581.913,-343.685 570.679,-329.866 560.4,-316.576"/>
<ellipse fill="none" stroke="#cf3261" cx="626.022" cy="-389.968" rx="4.00002" ry="4.00002"/>
<ellipse fill="#cf3261" stroke="#cf3261" cx="557.869" cy="-313.277" rx="4.00002" ry="4.00002"/>
</g>
<!-- Physical -->
<g id="node10" class="node"><title>Physical</title>
<path fill="none" stroke="black" d="M800.5,-189C800.5,-189 913.5,-189 913.5,-189 919.5,-189 925.5,-195 925.5,-201 925.5,-201 925.5,-313 925.5,-313 925.5,-319 919.5,-325 913.5,-325 913.5,-325 800.5,-325 800.5,-325 794.5,-325 788.5,-319 788.5,-313 788.5,-313 788.5,-201 788.5,-201 788.5,-195 794.5,-189 800.5,-189"/>
<text text-anchor="middle" x="857" y="-309.8" font-family="Times,serif" font-size="14.00">Physical</text>
<polyline fill="none" stroke="black" points="788.5,-302 925.5,-302 "/>
<text text-anchor="start" x="796.5" y="-286.8" font-family="Times,serif" font-size="14.00">id :INTEGER</text>
<text text-anchor="start" x="796.5" y="-271.8" font-family="Times,serif" font-size="14.00">passport :varchar</text>
<text text-anchor="start" x="796.5" y="-256.8" font-family="Times,serif" font-size="14.00">card_number :varchar</text>
<text text-anchor="start" x="796.5" y="-241.8" font-family="Times,serif" font-size="14.00">born_date :datetime</text>
<text text-anchor="start" x="796.5" y="-226.8" font-family="Times,serif" font-size="14.00">created_at :datetime</text>
<text text-anchor="start" x="796.5" y="-211.8" font-family="Times,serif" font-size="14.00">updated_at :datetime</text>
<text text-anchor="start" x="796.5" y="-196.8" font-family="Times,serif" font-size="14.00">person_id :integer</text>
</g>
<!-- Person&#45;&gt;Physical -->
<g id="edge2" class="edge"><title>Person&#45;&gt;Physical</title>
<path fill="none" stroke="#294a32" d="M748.364,-386.94C758.473,-376.825 768.684,-366.255 778,-356 785.085,-348.202 792.303,-339.865 799.353,-331.469"/>
<ellipse fill="none" stroke="#294a32" cx="745.268" cy="-390.018" rx="4.00002" ry="4.00002"/>
<ellipse fill="#294a32" stroke="#294a32" cx="802.145" cy="-328.118" rx="4.00002" ry="4.00002"/>
</g>
<!-- OrderYurist -->
<g id="node6" class="node"><title>OrderYurist</title>
<path fill="none" stroke="black" d="M305,-0.5C305,-0.5 415,-0.5 415,-0.5 421,-0.5 427,-6.5 427,-12.5 427,-12.5 427,-109.5 427,-109.5 427,-115.5 421,-121.5 415,-121.5 415,-121.5 305,-121.5 305,-121.5 299,-121.5 293,-115.5 293,-109.5 293,-109.5 293,-12.5 293,-12.5 293,-6.5 299,-0.5 305,-0.5"/>
<text text-anchor="middle" x="360" y="-106.3" font-family="Times,serif" font-size="14.00">OrderYurist</text>
<polyline fill="none" stroke="black" points="293,-98.5 427,-98.5 "/>
<text text-anchor="start" x="301" y="-83.3" font-family="Times,serif" font-size="14.00">id :INTEGER</text>
<text text-anchor="start" x="301" y="-68.3" font-family="Times,serif" font-size="14.00">project_id :integer</text>
<text text-anchor="start" x="301" y="-53.3" font-family="Times,serif" font-size="14.00">apartment_id :integer</text>
<text text-anchor="start" x="301" y="-38.3" font-family="Times,serif" font-size="14.00">yurist_id :integer</text>
<text text-anchor="start" x="301" y="-23.3" font-family="Times,serif" font-size="14.00">created_at :datetime</text>
<text text-anchor="start" x="301" y="-8.3" font-family="Times,serif" font-size="14.00">updated_at :datetime</text>
</g>
<!-- Yurist&#45;&gt;OrderYurist -->
<g id="edge4" class="edge"><title>Yurist&#45;&gt;OrderYurist</title>
<path fill="none" stroke="#6ac8a6" d="M474.17,-197.543C464.078,-184.417 453.285,-170.639 443,-158 435.374,-148.628 427.206,-138.866 419.079,-129.312"/>
<ellipse fill="none" stroke="#6ac8a6" cx="476.629" cy="-200.752" rx="4.00002" ry="4.00002"/>
<polygon fill="#6ac8a6" stroke="#6ac8a6" points="419.076,-129.308 416.003,-118.782 415.829,-125.506 412.581,-121.705 412.581,-121.705 412.581,-121.705 415.829,-125.506 409.159,-124.627 419.076,-129.308 419.076,-129.308"/>
</g>
<!-- Project&#45;&gt;OrderYurist -->
<g id="edge5" class="edge"><title>Project&#45;&gt;OrderYurist</title>
<path fill="none" stroke="#292d6f" d="M284.209,-384.761C281.224,-375.28 278.652,-365.478 277,-356 261.888,-269.307 246.292,-240.468 277,-158 280.641,-148.221 285.776,-138.774 291.728,-129.872"/>
<ellipse fill="none" stroke="#292d6f" cx="285.551" cy="-388.836" rx="4.00001" ry="4.00001"/>
<polygon fill="#292d6f" stroke="#292d6f" points="291.874,-129.665 301.332,-124.114 294.768,-125.587 297.662,-121.51 297.662,-121.51 297.662,-121.51 294.768,-125.587 293.992,-118.905 291.874,-129.665 291.874,-129.665"/>
</g>
<!-- Apartment -->
<g id="node11" class="node"><title>Apartment</title>
<path fill="none" stroke="black" d="M297.5,-159C297.5,-159 422.5,-159 422.5,-159 428.5,-159 434.5,-165 434.5,-171 434.5,-171 434.5,-343 434.5,-343 434.5,-349 428.5,-355 422.5,-355 422.5,-355 297.5,-355 297.5,-355 291.5,-355 285.5,-349 285.5,-343 285.5,-343 285.5,-171 285.5,-171 285.5,-165 291.5,-159 297.5,-159"/>
<text text-anchor="middle" x="360" y="-339.8" font-family="Times,serif" font-size="14.00">Apartment</text>
<polyline fill="none" stroke="black" points="285.5,-332 434.5,-332 "/>
<text text-anchor="start" x="293.5" y="-316.8" font-family="Times,serif" font-size="14.00">id :INTEGER</text>
<text text-anchor="start" x="293.5" y="-301.8" font-family="Times,serif" font-size="14.00">num :integer</text>
<text text-anchor="start" x="293.5" y="-286.8" font-family="Times,serif" font-size="14.00">project_id :integer</text>
<text text-anchor="start" x="293.5" y="-271.8" font-family="Times,serif" font-size="14.00">apartment_type :varchar</text>
<text text-anchor="start" x="293.5" y="-256.8" font-family="Times,serif" font-size="14.00">general_square :float</text>
<text text-anchor="start" x="293.5" y="-241.8" font-family="Times,serif" font-size="14.00">living_square :float</text>
<text text-anchor="start" x="293.5" y="-226.8" font-family="Times,serif" font-size="14.00">floor :integer</text>
<text text-anchor="start" x="293.5" y="-211.8" font-family="Times,serif" font-size="14.00">room_count :integer</text>
<text text-anchor="start" x="293.5" y="-196.8" font-family="Times,serif" font-size="14.00">price :float</text>
<text text-anchor="start" x="293.5" y="-181.8" font-family="Times,serif" font-size="14.00">created_at :datetime</text>
<text text-anchor="start" x="293.5" y="-166.8" font-family="Times,serif" font-size="14.00">updated_at :datetime</text>
</g>
<!-- Project&#45;&gt;Apartment -->
<g id="edge6" class="edge"><title>Project&#45;&gt;Apartment</title>
<path fill="none" stroke="#5ddd9f" d="M325.355,-385.032C327.103,-378.622 328.917,-371.969 330.758,-365.219"/>
<ellipse fill="none" stroke="#5ddd9f" cx="324.259" cy="-389.051" rx="4.00001" ry="4.00001"/>
<polygon fill="#5ddd9f" stroke="#5ddd9f" points="330.839,-364.924 337.812,-356.46 332.154,-360.1 333.47,-355.276 333.47,-355.276 333.47,-355.276 332.154,-360.1 329.129,-354.092 330.839,-364.924 330.839,-364.924"/>
</g>
<!-- Broker -->
<g id="node7" class="node"><title>Broker</title>
<path fill="none" stroke="black" d="M614,-174C614,-174 758,-174 758,-174 764,-174 770,-180 770,-186 770,-186 770,-328 770,-328 770,-334 764,-340 758,-340 758,-340 614,-340 614,-340 608,-340 602,-334 602,-328 602,-328 602,-186 602,-186 602,-180 608,-174 614,-174"/>
<text text-anchor="middle" x="686" y="-324.8" font-family="Times,serif" font-size="14.00">Broker</text>
<polyline fill="none" stroke="black" points="602,-317 770,-317 "/>
<text text-anchor="start" x="610" y="-301.8" font-family="Times,serif" font-size="14.00">id :INTEGER</text>
<text text-anchor="start" x="610" y="-286.8" font-family="Times,serif" font-size="14.00">name :varchar</text>
<text text-anchor="start" x="610" y="-271.8" font-family="Times,serif" font-size="14.00">education :varchar</text>
<text text-anchor="start" x="610" y="-256.8" font-family="Times,serif" font-size="14.00">experience :integer</text>
<text text-anchor="start" x="610" y="-241.8" font-family="Times,serif" font-size="14.00">experience_in_firm :integer</text>
<text text-anchor="start" x="610" y="-226.8" font-family="Times,serif" font-size="14.00">rating :float</text>
<text text-anchor="start" x="610" y="-211.8" font-family="Times,serif" font-size="14.00">percent_for_service :float</text>
<text text-anchor="start" x="610" y="-196.8" font-family="Times,serif" font-size="14.00">created_at :datetime</text>
<text text-anchor="start" x="610" y="-181.8" font-family="Times,serif" font-size="14.00">updated_at :datetime</text>
</g>
<!-- Order -->
<g id="node8" class="node"><title>Order</title>
<path fill="none" stroke="black" d="M631,-0.5C631,-0.5 741,-0.5 741,-0.5 747,-0.5 753,-6.5 753,-12.5 753,-12.5 753,-109.5 753,-109.5 753,-115.5 747,-121.5 741,-121.5 741,-121.5 631,-121.5 631,-121.5 625,-121.5 619,-115.5 619,-109.5 619,-109.5 619,-12.5 619,-12.5 619,-6.5 625,-0.5 631,-0.5"/>
<text text-anchor="middle" x="686" y="-106.3" font-family="Times,serif" font-size="14.00">Order</text>
<polyline fill="none" stroke="black" points="619,-98.5 753,-98.5 "/>
<text text-anchor="start" x="627" y="-83.3" font-family="Times,serif" font-size="14.00">id :INTEGER</text>
<text text-anchor="start" x="627" y="-68.3" font-family="Times,serif" font-size="14.00">physical_id :integer</text>
<text text-anchor="start" x="627" y="-53.3" font-family="Times,serif" font-size="14.00">broker_id :integer</text>
<text text-anchor="start" x="627" y="-38.3" font-family="Times,serif" font-size="14.00">apartment_id :integer</text>
<text text-anchor="start" x="627" y="-23.3" font-family="Times,serif" font-size="14.00">created_at :datetime</text>
<text text-anchor="start" x="627" y="-8.3" font-family="Times,serif" font-size="14.00">updated_at :datetime</text>
</g>
<!-- Broker&#45;&gt;Order -->
<g id="edge7" class="edge"><title>Broker&#45;&gt;Order</title>
<path fill="none" stroke="#f6fcd8" d="M686,-165.507C686,-154.254 686,-142.883 686,-132.005"/>
<ellipse fill="none" stroke="#f6fcd8" cx="686" cy="-169.727" rx="4" ry="4"/>
<polygon fill="#f6fcd8" stroke="#f6fcd8" points="686,-131.746 690.5,-121.746 686,-126.746 686,-121.746 686,-121.746 686,-121.746 686,-126.746 681.5,-121.746 686,-131.746 686,-131.746"/>
</g>
<!-- ApplicationRecord -->
<g id="node9" class="node"><title>ApplicationRecord</title>
<ellipse fill="none" stroke="black" cx="482" cy="-597" rx="77.0154" ry="18"/>
<text text-anchor="middle" x="482" y="-593.3" font-family="Times,serif" font-size="14.00">ApplicationRecord</text>
</g>
<!-- Physical&#45;&gt;Order -->
<g id="edge8" class="edge"><title>Physical&#45;&gt;Order</title>
<path fill="none" stroke="#001f07" d="M798.927,-182.546C791.978,-174.181 784.9,-165.847 778,-158 769.618,-148.468 760.593,-138.602 751.587,-128.986"/>
<ellipse fill="none" stroke="#001f07" cx="801.664" cy="-185.858" rx="4.00002" ry="4.00002"/>
<polygon fill="#001f07" stroke="#001f07" points="751.572,-128.969 747.991,-118.605 748.143,-125.33 744.715,-121.69 744.715,-121.69 744.715,-121.69 748.143,-125.33 741.439,-124.775 751.572,-128.969 751.572,-128.969"/>
</g>
<!-- Apartment&#45;&gt;OrderYurist -->
<g id="edge9" class="edge"><title>Apartment&#45;&gt;OrderYurist</title>
<path fill="none" stroke="#10c0e1" d="M360,-150.708C360,-144.325 360,-137.99 360,-131.815"/>
<ellipse fill="none" stroke="#10c0e1" cx="360" cy="-154.716" rx="4" ry="4"/>
<polygon fill="#10c0e1" stroke="#10c0e1" points="360,-131.594 364.5,-121.594 360,-126.594 360,-121.594 360,-121.594 360,-121.594 360,-126.594 355.5,-121.594 360,-131.594 360,-131.594"/>
</g>
<!-- Apartment&#45;&gt;Order -->
<g id="edge10" class="edge"><title>Apartment&#45;&gt;Order</title>
<path fill="none" stroke="#195c7e" d="M441.021,-160.178C442.009,-159.438 443.003,-158.712 444,-158 493.924,-122.366 558.92,-97.5347 608.981,-82.0665"/>
<ellipse fill="none" stroke="#195c7e" cx="437.712" cy="-162.774" rx="4.00002" ry="4.00002"/>
<polygon fill="#195c7e" stroke="#195c7e" points="609.215,-81.9959 620.09,-83.4041 614,-80.5466 618.785,-79.0973 618.785,-79.0973 618.785,-79.0973 614,-80.5466 617.481,-74.7905 609.215,-81.9959 609.215,-81.9959"/>
</g>
</g>
</svg>
